<svg width="22" height="22" viewBox="0 0 22 22" fill="none" xmlns="http://www.w3.org/2000/svg">
<path d="M9.13235 17.9926V18.4926H9.63235H11.4847H11.9847V17.9926V17.0731C12.7749 16.8743 13.4763 16.5251 14.0806 16.0216C14.8583 15.3735 15.2132 14.4298 15.2132 13.2823C15.2132 12.4393 14.9703 11.6617 14.4904 10.9619C13.9766 10.2126 13.0069 9.62943 11.7075 9.16018L11.7075 9.16004L11.6958 9.15612C10.6391 8.80389 9.96141 8.51178 9.6144 8.28547C9.34065 8.10694 9.23263 7.89797 9.23263 7.61931C9.23263 7.29561 9.33952 7.08291 9.53708 6.92272C9.74096 6.75742 10.0831 6.63741 10.6379 6.63741C11.1246 6.63741 11.4353 6.75471 11.6348 6.92646C11.8839 7.14097 12.0639 7.40584 12.1768 7.73064L12.3497 8.22768L12.8373 8.02962L14.5309 7.34159L14.9579 7.16813L14.8197 6.72845C14.5963 6.01771 14.1853 5.40353 13.6015 4.88904C13.1313 4.47455 12.6085 4.19709 12.0377 4.06858V3.17361V2.67361H11.5377H9.68528H9.18528V3.17361V4.10994C8.39366 4.34708 7.73702 4.75175 7.23995 5.33759C6.67394 6.00468 6.38025 6.77056 6.38025 7.61931C6.38025 8.55241 6.65665 9.3539 7.24516 9.9745C7.80627 10.5662 8.65117 11.0407 9.72737 11.4239C10.8336 11.8279 11.5462 12.1695 11.9164 12.4415C12.2277 12.6702 12.3608 12.9386 12.3608 13.2823C12.3608 13.73 12.212 13.9845 11.9636 14.1483C11.644 14.3591 11.2453 14.4759 10.7438 14.4759C10.2745 14.4759 9.86923 14.3333 9.509 14.0437C9.16002 13.7632 8.87493 13.3204 8.68324 12.6655L8.52947 12.1401L8.02011 12.3408L6.27359 13.0288L5.8491 13.196L5.97685 13.634C6.24271 14.5455 6.66382 15.3078 7.25442 15.8984C7.7638 16.4078 8.39467 16.7718 9.13235 16.9991V17.9926ZM10.585 20.6681C9.18582 20.6681 7.87749 20.403 6.65495 19.8755C5.4227 19.3437 4.3558 18.6246 3.44967 17.7184C2.54353 16.8123 1.82437 15.7454 1.29265 14.5132C0.765117 13.2906 0.5 11.9823 0.5 10.5831C0.5 9.18392 0.765117 7.8756 1.29265 6.65306C1.82437 5.42081 2.54353 4.35391 3.44967 3.44777C4.3558 2.54164 5.4227 1.82248 6.65495 1.29076C7.87749 0.763225 9.18582 0.498108 10.585 0.498108C11.9842 0.498108 13.2925 0.763225 14.5151 1.29076C15.7473 1.82248 16.8142 2.54164 17.7203 3.44777C18.6265 4.35391 19.3456 5.42081 19.8773 6.65306C20.4049 7.8756 20.67 9.18392 20.67 10.5831C20.67 11.9823 20.4049 13.2906 19.8773 14.5132C19.3456 15.7454 18.6265 16.8123 17.7203 17.7184C16.8142 18.6246 15.7473 19.3437 14.5151 19.8755C13.2925 20.403 11.9842 20.6681 10.585 20.6681Z" fill="white" stroke="black"/>
</svg>
